HIERARCHY
ROOT Hips
{
  OFFSET 3.13124 94.3669 -3.18751
  CHANNELS  6 Xposition Yposition Zposition Zrotation Xrotation Yrotation
  JOINT LeftUpLeg
  {
    OFFSET 8.64259 1.95398 -2.38835
    CHANNELS 3 Zrotation Xrotation Yrotation
    JOINT LeftLeg
    {
      OFFSET 43.7702 0 0
      CHANNELS 3 Zrotation Xrotation Yrotation
      JOINT LeftFoot
      {
        OFFSET 40.6238 0 0
        CHANNELS 3 Zrotation Xrotation Yrotation
        JOINT LeftToeBase
        {
          OFFSET 12.7242 0 0
          CHANNELS 3 Zrotation Xrotation Yrotation
          End Site
          {
            OFFSET 0 0 0
          }
        }
      }
    }
  }
  JOINT RightUpLeg
  {
    OFFSET -8.2249 1.95398 -2.59336
    CHANNELS 3 Zrotation Xrotation Yrotation
    JOINT RightLeg
    {
      OFFSET 43.5653 0 0
      CHANNELS 3 Zrotation Xrotation Yrotation
      JOINT RightFoot
      {
        OFFSET 40.6238 0 0
        CHANNELS 3 Zrotation Xrotation Yrotation
        JOINT RightToeBase
        {
          OFFSET 12.7242 0 0
          CHANNELS 3 Zrotation Xrotation Yrotation
          End Site
          {
            OFFSET 0 0 0
          }
        }
      }
    }
  }
  JOINT Spine
  {
    OFFSET 0.165834 0.87714 6.61349
    CHANNELS 3 Zrotation Xrotation Yrotation
    JOINT Spine1
    {
      OFFSET 7.38962 1.71661e-005 0
      CHANNELS 3 Zrotation Xrotation Yrotation
      JOINT Spine2
      {
        OFFSET 11.9445 1.14441e-005 0
        CHANNELS 3 Zrotation Xrotation Yrotation
        JOINT Spine3
        {
          OFFSET 14.7254 4.19617e-005 0
          CHANNELS 3 Zrotation Xrotation Yrotation
          JOINT Spine4
          {
            OFFSET 10.9679 0 0
            CHANNELS 3 Zrotation Xrotation Yrotation
            JOINT RightShoulder
            {
              OFFSET 2.46616 -1.6653 3.69651
              CHANNELS 3 Zrotation Xrotation Yrotation
              JOINT RightArm
              {
                OFFSET 13.0012 0 0
                CHANNELS 3 Zrotation Xrotation Yrotation
                JOINT RightForeArm
                {
                  OFFSET 28.7848 1.52588e-005 0
                  CHANNELS 3 Zrotation Xrotation Yrotation
                  JOINT RightHand
                  {
                    OFFSET 26.5688 1.52588e-005 0
                    CHANNELS 3 Zrotation Xrotation Yrotation
                    End Site
                    {
                      OFFSET 0 0 0
                    }
                  }
                }
              }
            }
            JOINT LeftShoulder
            {
              OFFSET 2.38034 -1.29275 -3.75231
              CHANNELS 3 Zrotation Xrotation Yrotation
              JOINT LeftArm
              {
                OFFSET 16.3182 6.10352e-005 0
                CHANNELS 3 Zrotation Xrotation Yrotation
                JOINT LeftForeArm
                {
                  OFFSET 27.0901 0 0
                  CHANNELS 3 Zrotation Xrotation Yrotation
                  JOINT LeftHand
                  {
                    OFFSET 24.5451 1.52588e-005 0
                    CHANNELS 3 Zrotation Xrotation Yrotation
                    End Site
                    {
                      OFFSET 0 0 0
                    }
                  }
                }
              }
            }
            JOINT Neck
            {
              OFFSET 5.0226 -0.0266342 0
              CHANNELS 3 Zrotation Xrotation Yrotation
              JOINT Head
              {
                OFFSET 6.69363 2.86102e-005 0
                CHANNELS 3 Zrotation Xrotation Yrotation
                End Site
                {
                  OFFSET 0 0 0
                }
              }
            }
          }
        }
      }
    }
  }
}
MOTION
Frames:	7
Frame Time:	0.0333333
8.92284 106.75 -15.3272 97.1874 -63.8932 96.4297 -173.292 9.79184 92.3006 -20.5132 -24.5477 2.50219 4.29627 -1.26072 -5.18406 28.7808 5.98852e-006 2.44713e-006 179.318 20.4172 84.1197 -17.9204 -3.05566 -0.248355 17.5252 8.55581 12.8625 28.7808 1.4036e-005 2.28219e-005 -3.29955 6.09851 -87.7163 14.4973 -5.76095 1.1225 2.83847 -5.70595 1.37574 -19.7992 -5.83105 -0.666826 0.213436 -5.83105 -0.666829 109.193 -13.8717 -62.9078 -22.785 41.3479 -4.66402 -4.6977 0.310593 -8.57215 -5.37983 -0.320024 -0.0162404 -87.3308 -27.455 77.7013 -26.5693 -30.1549 -53.1311 -167.544 74.4263 179.926 -4.77442 -0.0913791 -4.29392 2.70574 15.1101 -20.6564 -13.7138 16.237 20.9218 
9.92978 106.824 -13.9823 95.9082 -64.4331 94.759 -173.348 9.20758 91.7801 -20.115 -23.2589 2.41426 3.68985 -1.1691 -5.16831 28.7808 5.98852e-006 2.44713e-006 178.613 18.7059 83.8639 -7.66156 -7.16217 -0.451225 12.2449 13.3045 20.9451 28.7808 1.4036e-005 2.28219e-005 -3.45809 6.09933 -87.9014 14.4997 -6.10903 1.03604 2.84251 -6.05749 1.30485 -19.8075 -6.13688 -0.854996 0.205125 -6.13689 -0.854996 108.381 -15.0355 -65.501 -21.2634 40.2116 -1.1145 -4.65853 0.219448 -8.02563 -5.37983 -0.320024 -0.0162404 -84.8098 -22.4854 81.5706 -25.3539 -30.1139 -60.1902 -166.995 68.848 179.946 -0.530719 -0.112995 -5.90688 2.87213 15.7894 -18.0359 -12.4535 17.0177 17.5404 
10.8643 106.646 -12.4136 95.9149 -64.7893 93.7801 -173.302 8.35141 90.98 -20.4382 -20.5556 2.62313 3.11864 -1.38778 -5.73471 28.7808 5.98852e-006 2.44713e-006 178.47 19.3122 83.2627 -6.70724 -6.05398 -0.371854 8.38267 14.0737 23.8487 28.7808 1.4036e-005 2.28219e-005 -3.65353 6.15354 -87.7833 14.3535 -6.40063 0.864157 2.69784 -6.35637 1.14614 -19.9626 -6.3632 -1.10752 0.0501094 -6.36318 -1.10751 108.159 -15.3766 -66.1995 -17.5533 39.7004 -0.793519 -4.45339 0.134692 -7.48432 -5.37983 -0.320024 -0.0162404 -82.0706 -17.2757 86.6277 -23.1294 -30.3762 -65.6212 -167.937 69.8008 179.954 -1.54897 -0.110584 -7.10961 2.95611 16.784 -14.0414 -11.0525 17.8404 13.7414 
11.894 106.461 -10.6134 95.3207 -65.4433 92.5449 -173.407 7.62439 90.337 -20.5912 -18.8042 3.05208 2.17443 -1.7221 -6.5354 28.7808 5.98852e-006 2.44713e-006 178.433 19.0592 82.962 -6.59738 -3.9208 -0.257295 3.59026 12.5019 23.6691 28.7808 1.4036e-005 2.28219e-005 -3.70681 6.18926 -87.8495 14.2541 -6.54962 0.476403 2.59954 -6.52227 0.765425 -20.0642 -6.38869 -1.52237 -0.0515546 -6.38868 -1.52238 107.813 -14.2341 -66.7612 -12.7633 38.7725 -0.346646 -4.317 0.0703609 -7.59661 -5.37983 -0.320024 -0.0162404 -79.6245 -13.6119 92.1393 -20.6887 -32.3202 -71.6167 -168.349 65.0051 -179.615 -0.862948 -0.134495 -7.71232 2.84941 17.6935 -8.19875 -9.46482 18.279 8.55182 
13.0496 106.436 -8.42462 93.5541 -65.8266 90.9647 -173.463 7.02953 90.3866 -20.141 -17.1234 3.44788 0.790323 -1.70403 -6.80152 28.7808 5.98852e-006 2.44713e-006 178.908 20.6892 83.6474 -11.8195 -6.39507 -0.417143 6.21309 10.648 19.4107 28.7808 1.4036e-005 2.28219e-005 -3.55742 6.18814 -88.2906 14.2719 -6.56614 0.00616622 2.6176 -6.55947 0.296418 -20.0426 -6.26318 -1.97542 -0.0299842 -6.26318 -1.97541 106.985 -14.8504 -69.1626 -11.6156 38.1284 3.15235 -6.6823 0.233094 -6.8219 -5.37983 -0.320024 -0.0162404 -77.6165 -12.239 97.3575 -16.5166 -36.5729 -76.9572 -171.665 64.0546 -176.444 -0.891308 -0.158166 -9.54492 0.968369 17.9994 -2.46431 -6.335 18.0377 3.63225 
14.0019 106.513 -6.0086 91.063 -65.1575 88.8995 -173.046 7.1351 90.9328 -19.704 -14.7602 3.26915 -1.78608 -0.78543 -5.58305 28.7808 5.98852e-006 2.44713e-006 179.291 22.2884 83.9258 -17.2286 -6.1003 -0.397787 12.2382 10.4034 16.9001 28.7808 1.4036e-005 2.28219e-005 -3.48497 6.13912 -88.6044 14.3645 -6.58104 -0.522665 2.71029 -6.59763 -0.231236 -19.9443 -6.11858 -2.48366 0.0683505 -6.11858 -2.48367 106.501 -16.2932 -70.7922 -10.7474 37.4633 6.21177 -5.56759 0.131292 -6.61318 -5.37983 -0.320024 -0.0162404 -75.369 -11.4757 103.465 -12.8448 -41.5348 -82.371 -175.138 66.6874 -173.788 -2.46795 -0.0880735 -7.71052 -0.880338 17.7021 1.60878 -4.24221 17.3275 0.242384 
14.7912 106.889 -3.69282 89.8025 -64.0085 88.2535 -172.179 7.3076 91.8648 -19.6586 -13.5421 1.36043 -3.66912 2.77103 1.19593 28.7808 5.98852e-006 2.44713e-006 179.447 21.0795 84.7088 -18.4714 -3.77375 -0.284568 16.8895 9.63502 14.4418 28.7808 1.4036e-005 2.28219e-005 -3.28359 6.11766 -88.989 14.4179 -6.41573 -1.01889 2.7626 -6.45432 -0.734392 -19.8787 -5.81203 -2.906 0.133987 -5.81201 -2.906 106.235 -18.7897 -71.9751 -10.1815 36.7752 8.97735 -5.84111 0.190402 -6.70092 -5.37983 -0.320024 -0.0162404 -73.2904 -11.0089 109.207 -8.25125 -47.6742 -85.3904 170.562 80.9549 -161.936 -2.62194 -0.0842221 -4.01971 -3.56796 16.8202 4.81525 -1.97235 16.1839 -3.02792 
